<svg width="18" height="18" viewBox="0 0 18 18" fill="none" xmlns="http://www.w3.org/2000/svg">
<path d="M17.9996 4.84786C17.9802 3.55615 17.4601 2.3414 16.5353 1.42737C15.6105 0.513485 14.3897 0.00765723 13.0953 0.00305176C11.6063 0.00305176 10.4723 0.780708 9.48291 1.59911C9.48179 1.59911 9.48066 1.59911 9.47954 1.59911C9.02261 1.59911 8.53936 1.32366 7.98202 1.00599C7.19814 0.559118 6.22266 0.00305176 4.90473 0.00305176C2.24055 0.00305176 0.0405067 2.17645 0.000428608 4.8479C-0.0168331 5.9961 0.48889 8.52953 1.23019 11.0087C1.75835 12.775 2.84144 15.9382 4.16085 17.2776C4.6311 17.755 5.12312 17.997 5.62304 17.997C5.99186 17.997 6.3256 17.8437 6.58818 17.5538C6.76688 17.3564 6.91408 17.0939 7.03811 16.7513C7.23144 16.2175 7.35227 15.5386 7.4802 14.8198C7.80846 12.9756 8.12905 11.564 9.00173 11.5588C9.87445 11.564 10.195 12.9755 10.5233 14.8198C10.6512 15.5385 10.7721 16.2174 10.9654 16.7513C11.0894 17.0939 11.2366 17.3564 11.4153 17.5538C11.6749 17.8404 12.0039 17.9935 12.3677 17.997C12.3715 17.997 12.3751 17.997 12.3789 17.997C12.3794 17.997 12.3799 17.997 12.3805 17.997C12.3828 17.997 12.3853 17.997 12.3876 17.9969C12.8839 17.9936 13.3723 17.7515 13.8393 17.2775C15.1586 15.9382 16.2417 12.775 16.7698 11.0086C17.5112 8.52946 18.0168 5.99607 17.9996 4.84786ZM15.4229 10.6058C14.5878 13.3987 13.6456 15.4709 12.8378 16.2909C12.6631 16.4682 12.5238 16.5541 12.4343 16.5813C12.3902 16.5194 12.3044 16.3659 12.2058 16.0164C12.093 15.6171 12.0028 15.1101 11.9073 14.5733C11.7457 13.6658 11.5626 12.637 11.206 11.8236C10.6072 10.4576 9.69047 10.1593 9.0186 10.153C9.01463 10.153 9.01062 10.1529 9.00658 10.1529H8.99684C8.99284 10.1529 8.98883 10.153 8.98482 10.153C8.31298 10.1593 7.39625 10.4576 6.7974 11.8237C6.44081 12.637 6.25771 13.6657 6.09617 14.5733C6.00065 15.1101 5.91041 15.6171 5.79769 16.0164C5.69862 16.3675 5.61246 16.5208 5.56855 16.5821C5.47918 16.5559 5.3388 16.4701 5.16232 16.2909C4.3545 15.4709 3.41224 13.3988 2.5771 10.6059C1.79958 8.0057 1.39346 5.70944 1.40608 4.86899C1.43473 2.96103 3.00425 1.40881 4.9048 1.40881C5.85018 1.40881 6.58006 1.82488 7.28586 2.22714C7.57516 2.39206 7.86861 2.55937 8.17514 2.6963C7.48245 3.24084 6.81195 3.63374 6.02864 3.63374V5.03954C7.62273 5.03954 8.76892 4.05709 9.8774 3.10703C10.8964 2.23368 11.8588 1.40874 13.0928 1.40874C14.9948 1.41552 16.5655 2.96774 16.594 4.86892C16.6066 5.70937 16.2004 8.00563 15.4229 10.6058Z" fill="#1e37b7"/>
</svg>
