<svg width="40" height="38" viewBox="0 0 40 38" fill="none" xmlns="http://www.w3.org/2000/svg"><path d="M10.5 19.8043c0-9.4732 10.7739-8.8106 11.1421-2.3315C21.7648 19.5834 18.5743 19.7552 18.4516 17.6446c-.2209-2.4542-4.7857-3.1414-4.7857 2.1597.0 3.4604 6.7491 14.6515 12.4428 14.6515 5.1538.0 10.7985-14.6761 10.7985-20.9097.0-5.1293-3.0187-10.3322-9.7186-10.3322-6.5282.0-8.9088 8.4179-13.4736 8.4179-2.1106.0-2.1106-3.19046.0-3.19046S19.4824.0234375 27.1886.0234375c9.5222.0 17.9156 8.9823625 9.0559 27.8306625C25.0289 51.7825 10.5 24.9581 10.5 19.8043z" fill="url(#paint0_linear_1013_74)"/><path d="M0 13.5351C0 2.44214 10.3322-2.24538 17.3512 1.0187 19.2655 1.90221 17.9157 4.79817 16.0014 3.91466 10.9703 1.55862 3.16592 4.84725 3.16592 13.5351c0 6.2337 5.64465 20.9098 10.79848 20.9098 5.6937.0 12.4428-11.1666 12.4428-14.6516.0-5.301-4.5648-4.6384-4.7857-2.1351C21.5724 18.5417 20.8116 19.2043 19.9281 19.1552 16.934 18.9834 18.5537 12.6271 23.8303 12.6271c4.663.0 9.5713 6.43.907999999999998 17.842C9.1787 51.0353.0 21.3149.0 13.5351z" fill="url(#paint1_linear_1013_74)"/><defs><linearGradient id="paint0_linear_1013_74" x1="8.25998" y1="14.9785" x2="46.3534" y2="20.4423" gradientUnits="userSpaceOnUse"><stop stop-color="#fff"/><stop offset="1" stop-color="#fff"/></linearGradient><linearGradient id="paint1_linear_1013_74" x1="-2.24069" y1="14.9453" x2="35.8627" y2="20.4157" gradientUnits="userSpaceOnUse"><stop stop-color="#fff"/><stop offset="1" stop-color="#fff"/></linearGradient></defs></svg>