<svg width="64" height="48" viewBox="0 0 64 48" fill="none" xmlns="http://www.w3.org/2000/svg">
<g clip-path="url(#clip0_1104_81)">
<path d="M6.45156 44.1211C2.95156 40.2711 0.851562 36.0711 0.851562 29.0711C0.851562 16.8211 9.60156 5.97109 21.8516 0.371094L25.0016 4.92109C13.4516 11.2211 11.0016 19.2711 10.3016 24.5211C12.0516 23.4711 14.5016 23.1211 16.9516 23.4711C23.2516 24.1711 28.1516 29.0711 28.1516 35.7211C28.1516 38.8711 26.7516 42.0211 24.6516 44.4711C22.2016 46.9211 19.4016 47.9711 15.9016 47.9711C12.0516 47.9711 8.55156 46.2211 6.45156 44.1211ZM41.4516 44.1211C37.9516 40.2711 35.8516 36.0711 35.8516 29.0711C35.8516 16.8211 44.6016 5.97109 56.8516 0.371094L60.0016 4.92109C48.4516 11.2211 46.0016 19.2711 45.3016 24.5211C47.0516 23.4711 49.5016 23.1211 51.9516 23.4711C58.2516 24.1711 63.1516 29.0711 63.1516 35.7211C63.1516 38.8711 61.7516 42.0211 59.6516 44.4711C57.5516 46.9211 54.4016 47.9711 50.9016 47.9711C47.0516 47.9711 43.5516 46.2211 41.4516 44.1211Z" fill="#0f172a"/>
</g>
<defs>
<clipPath id="clip0_1104_81">
<rect width="64" height="48" fill="white"/>
</clipPath>
</defs>
</svg>
