<svg width="4170" height="284" viewBox="0 0 4170 284" fill="none" xmlns="http://www.w3.org/2000/svg">
<path d="M1 283L1559.42 1H2610.58M1629.49 1L439.974 283M1699.57 1L783.658 283M1769.65 1L1071.26 283M1839.73 1L1324.01 283M1909.81 1L1554.69 283M1979.88 1L1771.75 283M2049.96 1L1981.37 283M2120.04 1L2188.63 283M2190.12 1L2398.25 283M2260.19 1L2615.31 283M2330.27 1L2845.99 283M2400.35 1L3098.74 283M2470.43 1L3386.34 283M2540.51 1L3730.03 283M2610.58 1L4169 283M1.00079 282.999H4169M104.895 264.2H4065.1M208.788 245.4H3961.21M312.685 226.6H3857.32M416.578 207.8H3753.42M520.475 189H3649.53M624.369 170.2H3545.63M728.262 151.4H3441.74M832.157 132.6H3337.84M936.051 113.8H3233.95M1039.95 94.9995H3130.05M1143.84 76.1995H3026.16M1247.73 57.3993H2922.27M1351.63 38.5999H2818.37M1455.52 19.8003H2714.48" stroke="url(#paint0_linear_27_2)" stroke-opacity="0.1"/>
<defs>
<linearGradient id="paint0_linear_27_2" x1="2136" y1="-115.5" x2="2138.21" y2="283.297" gradientUnits="userSpaceOnUse">
<stop offset="0.345082" stop-color="#0f172a"/>
<stop offset="1" stop-color="white"/>
</linearGradient>
</defs>
</svg>
